# This file uses centimeters as units for non-parametric coordinates.

mtllib rock_2.mtl
g default
v 1.102437 0.000000 -0.631611
v -0.029493 0.000000 -1.180641
v -1.161423 0.000000 -0.887748
v -1.630282 0.000000 -0.045766
v -1.161423 0.000000 0.694103
v -0.029493 0.000000 0.986995
v 1.102437 0.000000 0.917478
v 1.571297 0.000000 0.210371
v 1.016273 0.382684 -0.577785
v -0.029493 0.382684 -0.848384
v -1.075259 0.382684 -0.833923
v -1.508430 0.382684 -0.045766
v -1.075259 0.382684 0.441620
v -0.029493 0.382684 0.712219
v 1.016273 0.382684 0.863654
v 1.449444 0.382684 0.210371
v 0.770902 0.707107 -0.289628
v -0.029493 0.707107 -0.496735
v -0.829887 0.707107 -0.545766
v -1.161423 0.707107 -0.045766
v -0.829887 0.707107 0.288339
v -0.029493 0.707107 0.495447
v 0.770902 0.707107 0.710371
v 1.102437 0.707107 0.210371
v 0.403678 0.641123 -0.060227
v -0.029493 0.641123 -0.172312
v -0.462664 0.641123 -0.060227
v -0.642088 0.641123 0.210371
v -0.462664 0.641123 0.257593
v -0.029493 0.641123 0.369679
v 0.403678 0.641123 0.480969
v 0.583102 0.641123 0.210371
v -0.029493 0.592739 0.210371
v -0.029492 0.000000 -0.045766
vt 0.000000 0.500000
vt 0.125000 0.500000
vt 0.125000 0.625000
vt 0.000000 0.625000
vt 0.250000 0.500000
vt 0.250000 0.625000
vt 0.375000 0.500000
vt 0.375000 0.625000
vt 0.500000 0.500000
vt 0.500000 0.625000
vt 0.625000 0.500000
vt 0.625000 0.625000
vt 0.750000 0.500000
vt 0.750000 0.625000
vt 0.875000 0.500000
vt 0.875000 0.625000
vt 1.000000 0.500000
vt 1.000000 0.625000
vt 0.125000 0.750000
vt 0.000000 0.750000
vt 0.250000 0.750000
vt 0.375000 0.750000
vt 0.500000 0.750000
vt 0.625000 0.750000
vt 0.750000 0.750000
vt 0.875000 0.750000
vt 1.000000 0.750000
vt 0.125000 0.875000
vt 0.000000 0.875000
vt 0.250000 0.875000
vt 0.375000 0.875000
vt 0.500000 0.875000
vt 0.625000 0.875000
vt 0.750000 0.875000
vt 0.875000 0.875000
vt 1.000000 0.875000
vt 0.062500 1.000000
vt 0.187500 1.000000
vt 0.312500 1.000000
vt 0.437500 1.000000
vt 0.562500 1.000000
vt 0.687500 1.000000
vt 0.812500 1.000000
vt 0.937500 1.000000
vt 0.000000 0.000000
vt 1.000000 0.000000
vt 0.500000 1.000000
vt 0.000000 0.000000
vt 1.000000 0.000000
vt 0.500000 1.000000
vt 0.000000 0.000000
vt 1.000000 0.000000
vt 0.500000 1.000000
vt 0.000000 0.000000
vt 1.000000 0.000000
vt 0.500000 1.000000
vt 0.000000 0.000000
vt 1.000000 0.000000
vt 0.500000 1.000000
vt 0.000000 0.000000
vt 1.000000 0.000000
vt 0.500000 1.000000
vt 0.000000 0.000000
vt 1.000000 0.000000
vt 0.500000 1.000000
vt 0.000000 0.000000
vt 1.000000 0.000000
vt 0.500000 1.000000
vn 0.313573 0.455573 -0.833142
vn 0.313573 0.455573 -0.833142
vn 0.313573 0.455572 -0.833142
vn 0.313573 0.455572 -0.833142
vn -0.124232 0.458007 -0.880225
vn -0.124232 0.458007 -0.880225
vn -0.124232 0.458007 -0.880225
vn -0.124232 0.458007 -0.880225
vn -0.844332 0.262335 -0.467208
vn -0.844333 0.262335 -0.467208
vn -0.844332 0.262334 -0.467208
vn -0.844333 0.262335 -0.467208
vn -0.744390 0.382802 0.547126
vn -0.744389 0.382802 0.547126
vn -0.744390 0.382802 0.547126
vn -0.744390 0.382802 0.547126
vn -0.205691 0.570777 0.794925
vn -0.205691 0.570777 0.794925
vn -0.205691 0.570777 0.794925
vn -0.205691 0.570777 0.794925
vn -0.034598 0.390988 0.919745
vn -0.034598 0.390988 0.919745
vn -0.034598 0.390988 0.919745
vn -0.034598 0.390988 0.919745
vn 0.805548 0.256501 0.534134
vn 0.805548 0.256501 0.534134
vn 0.805548 0.256501 0.534134
vn 0.805548 0.256501 0.534134
vn 0.844332 0.262335 -0.467208
vn 0.844332 0.262335 -0.467208
vn 0.844332 0.262335 -0.467208
vn 0.844332 0.262335 -0.467208
vn 0.172818 0.723927 -0.667880
vn 0.172818 0.723927 -0.667880
vn 0.172818 0.723927 -0.667880
vn 0.172818 0.723927 -0.667880
vn 0.013379 0.699496 -0.714512
vn 0.013379 0.699496 -0.714512
vn 0.013379 0.699496 -0.714512
vn 0.013379 0.699496 -0.714512
vn -0.604472 0.711229 -0.358840
vn -0.604472 0.711229 -0.358840
vn -0.604472 0.711229 -0.358840
vn -0.604472 0.711229 -0.358840
vn -0.563441 0.638311 0.524493
vn -0.563441 0.638311 0.524493
vn -0.563441 0.638311 0.524493
vn -0.563441 0.638311 0.524493
vn -0.210335 0.543142 0.812869
vn -0.210335 0.543142 0.812869
vn -0.210335 0.543142 0.812869
vn -0.210335 0.543142 0.812869
vn -0.175082 0.436972 0.882271
vn -0.175082 0.436972 0.882271
vn -0.175082 0.436972 0.882271
vn -0.175082 0.436972 0.882271
vn 0.622123 0.665431 0.412510
vn 0.622123 0.665431 0.412510
vn 0.622123 0.665431 0.412510
vn 0.622123 0.665431 0.412510
vn 0.604472 0.711229 -0.358841
vn 0.604472 0.711229 -0.358841
vn 0.604472 0.711229 -0.358841
vn 0.604472 0.711229 -0.358841
vn -0.051504 0.978636 0.199044
vn -0.051504 0.978636 0.199044
vn -0.051504 0.978636 0.199044
vn -0.051504 0.978636 0.199044
vn 0.008038 0.987525 0.157255
vn 0.008038 0.987525 0.157255
vn 0.008038 0.987525 0.157255
vn 0.008038 0.987525 0.157255
vn 0.095119 0.993466 0.063070
vn 0.095119 0.993466 0.063070
vn 0.095119 0.993466 0.063070
vn 0.095119 0.993466 0.063070
vn 0.211217 0.935568 -0.283020
vn 0.211217 0.935568 -0.283020
vn 0.211217 0.935568 -0.283020
vn 0.211216 0.935568 -0.283020
vn 0.119357 0.879194 -0.461273
vn 0.119357 0.879194 -0.461273
vn 0.119357 0.879194 -0.461273
vn 0.119357 0.879194 -0.461273
vn 0.119543 0.883948 -0.452045
vn 0.119543 0.883949 -0.452045
vn 0.119543 0.883949 -0.452045
vn 0.119543 0.883948 -0.452045
vn -0.125604 0.988578 -0.083284
vn -0.125604 0.988578 -0.083284
vn -0.125604 0.988578 -0.083284
vn -0.125604 0.988578 -0.083284
vn -0.125604 0.988578 0.083284
vn -0.125604 0.988578 0.083284
vn -0.125604 0.988578 0.083284
vn -0.125604 0.988578 0.083284
vn -0.032440 0.991580 0.125369
vn -0.032440 0.991580 0.125369
vn -0.032440 0.991580 0.125369
vn 0.032440 0.991580 0.125369
vn 0.032440 0.991580 0.125369
vn 0.032440 0.991580 0.125369
vn 0.078630 0.995540 0.052137
vn 0.078630 0.995540 0.052137
vn 0.078630 0.995540 0.052137
vn 0.075434 0.955070 -0.286619
vn 0.075434 0.955070 -0.286619
vn 0.075434 0.955070 -0.286619
vn 0.074985 0.954148 -0.289790
vn 0.074985 0.954148 -0.289790
vn 0.074985 0.954148 -0.289791
vn 0.074456 0.954186 -0.289802
vn 0.074456 0.954186 -0.289802
vn 0.074456 0.954186 -0.289802
vn -0.078630 0.995540 -0.052137
vn -0.078630 0.995540 -0.052137
vn -0.078630 0.995540 -0.052137
vn -0.078630 0.995540 0.052137
vn -0.078630 0.995540 0.052137
vn -0.078630 0.995540 0.052137
vn 0.000000 -1.000000 0.000000
vn 0.000000 -1.000000 0.000000
vn 0.000000 -1.000000 0.000000
vn 0.000000 -1.000000 0.000000
vn 0.000000 -1.000000 0.000000
vn 0.000000 -1.000000 0.000000
vn 0.000000 -1.000000 0.000000
vn 0.000000 -1.000000 0.000000
vn 0.000000 -1.000000 0.000000
vn 0.000000 -1.000000 0.000000
vn 0.000000 -1.000000 0.000000
vn 0.000000 -1.000000 0.000000
vn 0.000000 -1.000000 0.000000
vn 0.000000 -1.000000 0.000000
vn 0.000000 -1.000000 0.000000
vn 0.000000 -1.000000 0.000000
vn 0.000000 -1.000000 0.000000
vn 0.000000 -1.000000 0.000000
vn 0.000000 -1.000000 0.000000
vn 0.000000 -1.000000 0.000000
vn 0.000000 -1.000000 0.000000
vn 0.000000 -1.000000 0.000000
vn 0.000000 -1.000000 0.000000
vn 0.000000 -1.000000 0.000000
s off
g rock_2:pSphere14rockz
usemtl initialShadingGroup
f 1/1/1 2/2/2 10/3/3 9/4/4
f 2/2/5 3/5/6 11/6/7 10/3/8
f 3/5/9 4/7/10 12/8/11 11/6/12
f 4/7/13 5/9/14 13/10/15 12/8/16
f 5/9/17 6/11/18 14/12/19 13/10/20
f 6/11/21 7/13/22 15/14/23 14/12/24
f 7/13/25 8/15/26 16/16/27 15/14/28
f 8/15/29 1/17/30 9/18/31 16/16/32
f 9/4/33 10/3/34 18/19/35 17/20/36
f 10/3/37 11/6/38 19/21/39 18/19/40
f 11/6/41 12/8/42 20/22/43 19/21/44
f 12/8/45 13/10/46 21/23/47 20/22/48
f 13/10/49 14/12/50 22/24/51 21/23/52
f 14/12/53 15/14/54 23/25/55 22/24/56
f 15/14/57 16/16/58 24/26/59 23/25/60
f 16/16/61 9/18/62 17/27/63 24/26/64
f 17/20/65 18/19/66 26/28/67 25/29/68
f 18/19/69 19/21/70 27/30/71 26/28/72
f 19/21/73 20/22/74 28/31/75 27/30/76
f 20/22/77 21/23/78 29/32/79 28/31/80
f 21/23/81 22/24/82 30/33/83 29/32/84
f 22/24/85 23/25/86 31/34/87 30/33/88
f 23/25/89 24/26/90 32/35/91 31/34/92
f 24/26/93 17/27/94 25/36/95 32/35/96
f 25/29/97 26/28/98 33/37/99
f 26/28/100 27/30/101 33/38/102
f 27/30/103 28/31/104 33/39/105
f 28/31/106 29/32/107 33/40/108
f 29/32/109 30/33/110 33/41/111
f 30/33/112 31/34/113 33/42/114
f 31/34/115 32/35/116 33/43/117
f 32/35/118 25/36/119 33/44/120
f 2/45/121 1/46/122 34/47/123
f 3/48/124 2/49/125 34/50/126
f 4/51/127 3/52/128 34/53/129
f 5/54/130 4/55/131 34/56/132
f 6/57/133 5/58/134 34/59/135
f 7/60/136 6/61/137 34/62/138
f 8/63/139 7/64/140 34/65/141
f 1/66/142 8/67/143 34/68/144
