# This file uses centimeters as units for non-parametric coordinates.

mtllib rock_4.mtl
g default
v 1.126585 0.000000 -0.894189
v -0.005344 0.000000 -1.187082
v -0.997187 0.000000 -0.671330
v -1.466048 0.000000 0.035777
v -1.137273 0.000000 0.742884
v -0.005344 0.000000 1.035777
v 1.126585 0.000000 0.742884
v 1.595446 0.000000 0.035777
v 1.040422 0.382684 -0.840364
v -0.005344 0.382684 -1.110962
v -0.911024 0.382684 -0.617504
v -1.344195 0.382684 0.035777
v -1.051110 0.520709 0.834169
v -0.005344 0.520709 1.104767
v 1.040422 0.520709 0.689058
v 1.473593 0.382684 0.035777
v 0.795051 0.555519 -0.687083
v -0.005344 0.707107 -0.894189
v -0.805739 0.707107 -0.464223
v -1.137273 0.707107 0.035777
v -0.805739 0.845133 0.680887
v -0.005344 0.845133 0.887994
v 0.795051 0.845133 0.535777
v 1.126585 0.555519 0.035777
v 0.427826 0.772291 -0.457681
v -0.005344 0.923879 -0.569766
v -0.438515 0.923879 -0.234821
v -0.617940 0.923879 0.035777
v -0.438515 0.923879 0.451486
v -0.005344 0.923879 0.563570
v 0.427826 0.923879 0.451486
v 0.607252 0.772291 0.035777
v -0.005344 1.000000 0.180887
v -0.005344 0.000000 0.035777
vt 0.000000 0.500000
vt 0.125000 0.500000
vt 0.125000 0.625000
vt 0.000000 0.625000
vt 0.250000 0.500000
vt 0.250000 0.625000
vt 0.375000 0.500000
vt 0.375000 0.625000
vt 0.500000 0.500000
vt 0.500000 0.625000
vt 0.625000 0.500000
vt 0.625000 0.625000
vt 0.750000 0.500000
vt 0.750000 0.625000
vt 0.875000 0.500000
vt 0.875000 0.625000
vt 1.000000 0.500000
vt 1.000000 0.625000
vt 0.125000 0.750000
vt 0.000000 0.750000
vt 0.250000 0.750000
vt 0.375000 0.750000
vt 0.500000 0.750000
vt 0.625000 0.750000
vt 0.750000 0.750000
vt 0.875000 0.750000
vt 1.000000 0.750000
vt 0.125000 0.875000
vt 0.000000 0.875000
vt 0.250000 0.875000
vt 0.375000 0.875000
vt 0.500000 0.875000
vt 0.625000 0.875000
vt 0.750000 0.875000
vt 0.875000 0.875000
vt 1.000000 0.875000
vt 0.062500 1.000000
vt 0.187500 1.000000
vt 0.312500 1.000000
vt 0.437500 1.000000
vt 0.562500 1.000000
vt 0.687500 1.000000
vt 0.812500 1.000000
vt 0.937500 1.000000
vt 0.000000 0.000000
vt 1.000000 0.000000
vt 0.500000 1.000000
vt 0.000000 0.000000
vt 1.000000 0.000000
vt 0.500000 1.000000
vt 0.000000 0.000000
vt 1.000000 0.000000
vt 0.500000 1.000000
vt 0.000000 0.000000
vt 1.000000 0.000000
vt 0.500000 1.000000
vt 0.000000 0.000000
vt 1.000000 0.000000
vt 0.500000 1.000000
vt 0.000000 0.000000
vt 1.000000 0.000000
vt 0.500000 1.000000
vt 0.000000 0.000000
vt 1.000000 0.000000
vt 0.500000 1.000000
vt 0.000000 0.000000
vt 1.000000 0.000000
vt 0.500000 1.000000
vn 0.245986 0.189096 -0.950649
vn 0.245986 0.189096 -0.950649
vn 0.245986 0.189096 -0.950649
vn 0.245986 0.189096 -0.950649
vn -0.460208 0.198719 -0.865286
vn -0.460208 0.198719 -0.865286
vn -0.460208 0.198719 -0.865286
vn -0.460208 0.198719 -0.865286
vn -0.805548 0.256500 -0.534134
vn -0.805548 0.256500 -0.534134
vn -0.805548 0.256500 -0.534134
vn -0.805548 0.256500 -0.534134
vn -0.915653 0.174235 0.362244
vn -0.915653 0.174235 0.362244
vn -0.915653 0.174235 0.362244
vn -0.915653 0.174235 0.362244
vn -0.248470 -0.127226 0.960248
vn -0.248470 -0.127226 0.960248
vn -0.248470 -0.127226 0.960248
vn -0.248470 -0.127226 0.960248
vn 0.309401 0.011753 0.950859
vn 0.309401 0.011753 0.950859
vn 0.309401 0.011753 0.950859
vn 0.309401 0.011753 0.950859
vn 0.823046 0.220697 0.523344
vn 0.823046 0.220697 0.523344
vn 0.823046 0.220697 0.523344
vn 0.823046 0.220697 0.523344
vn 0.862702 0.264771 -0.430862
vn 0.862702 0.264771 -0.430862
vn 0.862702 0.264771 -0.430862
vn 0.862702 0.264771 -0.430862
vn 0.239539 0.652931 -0.718542
vn 0.239539 0.652931 -0.718542
vn 0.239539 0.652931 -0.718542
vn 0.239539 0.652931 -0.718542
vn -0.411971 0.500946 -0.761139
vn -0.411971 0.500946 -0.761139
vn -0.411971 0.500946 -0.761139
vn -0.411971 0.500946 -0.761139
vn -0.735918 0.469378 -0.487964
vn -0.735918 0.469378 -0.487964
vn -0.735918 0.469378 -0.487964
vn -0.735918 0.469378 -0.487964
vn -0.774543 0.592328 0.221878
vn -0.774543 0.592328 0.221878
vn -0.774543 0.592328 0.221878
vn -0.774543 0.592328 0.221878
vn -0.210335 0.543142 0.812869
vn -0.210335 0.543142 0.812869
vn -0.210335 0.543142 0.812869
vn -0.210335 0.543142 0.812869
vn 0.318794 0.557661 0.766410
vn 0.318795 0.557661 0.766410
vn 0.318794 0.557661 0.766410
vn 0.318794 0.557661 0.766410
vn 0.619191 0.775548 0.122991
vn 0.619191 0.775548 0.122991
vn 0.619191 0.775548 0.122991
vn 0.619191 0.775548 0.122991
vn 0.450043 0.866682 -0.215228
vn 0.450043 0.866682 -0.215228
vn 0.450043 0.866682 -0.215228
vn 0.450043 0.866682 -0.215228
vn 0.320416 0.837307 -0.443002
vn 0.320416 0.837307 -0.443002
vn 0.320416 0.837307 -0.443002
vn 0.320416 0.837307 -0.443002
vn -0.288049 0.837398 -0.464535
vn -0.288049 0.837398 -0.464535
vn -0.288049 0.837398 -0.464535
vn -0.288049 0.837398 -0.464535
vn -0.373215 0.894131 -0.247467
vn -0.373215 0.894131 -0.247467
vn -0.373215 0.894131 -0.247467
vn -0.373215 0.894131 -0.247467
vn -0.310126 0.950347 0.025725
vn -0.310126 0.950347 0.025725
vn -0.310126 0.950347 0.025725
vn -0.310126 0.950347 0.025725
vn -0.060922 0.969977 0.235441
vn -0.060922 0.969977 0.235441
vn -0.060922 0.969977 0.235441
vn -0.060922 0.969977 0.235441
vn 0.103592 0.955783 0.275224
vn 0.103592 0.955783 0.275224
vn 0.103592 0.955783 0.275224
vn 0.103592 0.955783 0.275224
vn 0.327508 0.909639 -0.255530
vn 0.327508 0.909639 -0.255530
vn 0.327508 0.909639 -0.255530
vn 0.327508 0.909639 -0.255530
vn 0.397886 0.902080 -0.167147
vn 0.397886 0.902080 -0.167147
vn 0.397886 0.902080 -0.167147
vn 0.397886 0.902080 -0.167147
vn 0.350524 0.931775 -0.094487
vn 0.350524 0.931775 -0.094487
vn 0.350524 0.931775 -0.094487
vn -0.077775 0.991884 -0.100583
vn -0.077775 0.991884 -0.100583
vn -0.077775 0.991884 -0.100583
vn -0.106511 0.991800 -0.070624
vn -0.106511 0.991800 -0.070624
vn -0.106511 0.991800 -0.070624
vn -0.136864 0.988827 0.059072
vn -0.136864 0.988827 0.059072
vn -0.136864 0.988827 0.059072
vn -0.050417 0.979538 0.194842
vn -0.050417 0.979538 0.194842
vn -0.050417 0.979538 0.194842
vn 0.050417 0.979538 0.194842
vn 0.050417 0.979538 0.194842
vn 0.050417 0.979538 0.194842
vn 0.296022 0.931389 -0.211864
vn 0.296022 0.931389 -0.211864
vn 0.296022 0.931389 -0.211864
vn 0.321576 0.939637 -0.116927
vn 0.321576 0.939637 -0.116927
vn 0.321576 0.939637 -0.116927
vn 0.000000 -1.000000 0.000000
vn 0.000000 -1.000000 0.000000
vn 0.000000 -1.000000 0.000000
vn 0.000000 -1.000000 0.000000
vn 0.000000 -1.000000 0.000000
vn 0.000000 -1.000000 0.000000
vn 0.000000 -1.000000 0.000000
vn 0.000000 -1.000000 0.000000
vn 0.000000 -1.000000 0.000000
vn 0.000000 -1.000000 0.000000
vn 0.000000 -1.000000 0.000000
vn 0.000000 -1.000000 0.000000
vn 0.000000 -1.000000 0.000000
vn 0.000000 -1.000000 0.000000
vn 0.000000 -1.000000 0.000000
vn 0.000000 -1.000000 0.000000
vn 0.000000 -1.000000 0.000000
vn 0.000000 -1.000000 0.000000
vn 0.000000 -1.000000 0.000000
vn 0.000000 -1.000000 0.000000
vn 0.000000 -1.000000 0.000000
vn 0.000000 -1.000000 0.000000
vn 0.000000 -1.000000 0.000000
vn 0.000000 -1.000000 0.000000
s off
g rock_4:pSphere10rockz
usemtl initialShadingGroup
f 1/1/1 2/2/2 10/3/3 9/4/4
f 2/2/5 3/5/6 11/6/7 10/3/8
f 3/5/9 4/7/10 12/8/11 11/6/12
f 4/7/13 5/9/14 13/10/15 12/8/16
f 5/9/17 6/11/18 14/12/19 13/10/20
f 6/11/21 7/13/22 15/14/23 14/12/24
f 7/13/25 8/15/26 16/16/27 15/14/28
f 8/15/29 1/17/30 9/18/31 16/16/32
f 9/4/33 10/3/34 18/19/35 17/20/36
f 10/3/37 11/6/38 19/21/39 18/19/40
f 11/6/41 12/8/42 20/22/43 19/21/44
f 12/8/45 13/10/46 21/23/47 20/22/48
f 13/10/49 14/12/50 22/24/51 21/23/52
f 14/12/53 15/14/54 23/25/55 22/24/56
f 15/14/57 16/16/58 24/26/59 23/25/60
f 16/16/61 9/18/62 17/27/63 24/26/64
f 17/20/65 18/19/66 26/28/67 25/29/68
f 18/19/69 19/21/70 27/30/71 26/28/72
f 19/21/73 20/22/74 28/31/75 27/30/76
f 20/22/77 21/23/78 29/32/79 28/31/80
f 21/23/81 22/24/82 30/33/83 29/32/84
f 22/24/85 23/25/86 31/34/87 30/33/88
f 23/25/89 24/26/90 32/35/91 31/34/92
f 24/26/93 17/27/94 25/36/95 32/35/96
f 25/29/97 26/28/98 33/37/99
f 26/28/100 27/30/101 33/38/102
f 27/30/103 28/31/104 33/39/105
f 28/31/106 29/32/107 33/40/108
f 29/32/109 30/33/110 33/41/111
f 30/33/112 31/34/113 33/42/114
f 31/34/115 32/35/116 33/43/117
f 32/35/118 25/36/119 33/44/120
f 2/45/121 1/46/122 34/47/123
f 3/48/124 2/49/125 34/50/126
f 4/51/127 3/52/128 34/53/129
f 5/54/130 4/55/131 34/56/132
f 6/57/133 5/58/134 34/59/135
f 7/60/136 6/61/137 34/62/138
f 8/63/139 7/64/140 34/65/141
f 1/66/142 8/67/143 34/68/144
