# This file uses centimeters as units for non-parametric coordinates.

mtllib rock_1.mtl
g default
v 1.113207 0.000000 -0.955114
v -0.018722 0.000000 -1.248007
v -1.150651 0.000000 -0.738393
v -1.619512 0.000000 -0.031286
v -1.150651 0.000000 0.675820
v -0.018722 0.000000 0.968714
v 1.113207 0.000000 0.675820
v 1.582068 0.000000 -0.031286
v 1.027044 0.382684 -0.901288
v -0.018722 0.382684 -1.171886
v -1.064487 0.623465 -0.684567
v -1.497659 0.623465 -0.031286
v -1.064487 0.469885 0.621996
v -0.018722 0.382684 0.892593
v 1.027044 0.232492 0.621996
v 1.460215 0.232492 -0.031286
v 0.781673 0.707107 -0.748008
v -0.018722 0.707107 -0.955114
v -0.819117 0.646651 -0.531286
v -1.150651 0.646651 -0.031286
v -0.819117 0.794308 0.468714
v -0.018722 0.707107 0.675820
v 0.781673 0.556915 0.468714
v 1.113207 0.556915 -0.031286
v 0.414448 0.923879 -0.518605
v -0.018722 0.923879 -0.630691
v -0.451893 0.923879 -0.301885
v -0.631318 0.923879 -0.031286
v -0.451893 0.923879 0.239311
v -0.018722 0.750257 0.351398
v 0.414448 0.773688 0.239311
v 0.593874 0.773688 -0.031286
v -0.018722 0.676186 -0.248008
v -0.018722 0.000000 -0.031286
vt 0.000000 0.500000
vt 0.125000 0.500000
vt 0.125000 0.625000
vt 0.000000 0.625000
vt 0.250000 0.500000
vt 0.250000 0.625000
vt 0.375000 0.500000
vt 0.375000 0.625000
vt 0.500000 0.500000
vt 0.500000 0.625000
vt 0.625000 0.500000
vt 0.625000 0.625000
vt 0.750000 0.500000
vt 0.750000 0.625000
vt 0.875000 0.500000
vt 0.875000 0.625000
vt 1.000000 0.500000
vt 1.000000 0.625000
vt 0.125000 0.750000
vt 0.000000 0.750000
vt 0.250000 0.750000
vt 0.375000 0.750000
vt 0.500000 0.750000
vt 0.625000 0.750000
vt 0.750000 0.750000
vt 0.875000 0.750000
vt 1.000000 0.750000
vt 0.125000 0.875000
vt 0.000000 0.875000
vt 0.250000 0.875000
vt 0.375000 0.875000
vt 0.500000 0.875000
vt 0.625000 0.875000
vt 0.750000 0.875000
vt 0.875000 0.875000
vt 1.000000 0.875000
vt 0.062500 1.000000
vt 0.187500 1.000000
vt 0.312500 1.000000
vt 0.437500 1.000000
vt 0.562500 1.000000
vt 0.687500 1.000000
vt 0.812500 1.000000
vt 0.937500 1.000000
vt 0.000000 0.000000
vt 1.000000 0.000000
vt 0.500000 1.000000
vt 0.000000 0.000000
vt 1.000000 0.000000
vt 0.500000 1.000000
vt 0.000000 0.000000
vt 1.000000 0.000000
vt 0.500000 1.000000
vt 0.000000 0.000000
vt 1.000000 0.000000
vt 0.500000 1.000000
vt 0.000000 0.000000
vt 1.000000 0.000000
vt 0.500000 1.000000
vt 0.000000 0.000000
vt 1.000000 0.000000
vt 0.500000 1.000000
vt 0.000000 0.000000
vt 1.000000 0.000000
vt 0.500000 1.000000
vt 0.000000 0.000000
vt 1.000000 0.000000
vt 0.500000 1.000000
vn 0.245986 0.189096 -0.950649
vn 0.245986 0.189096 -0.950649
vn 0.245986 0.189096 -0.950649
vn 0.245986 0.189096 -0.950649
vn -0.397634 0.150940 -0.905044
vn -0.397634 0.150940 -0.905044
vn -0.397634 0.150940 -0.905044
vn -0.397634 0.150940 -0.905044
vn -0.822590 0.160771 -0.545434
vn -0.822590 0.160771 -0.545434
vn -0.822590 0.160771 -0.545434
vn -0.822590 0.160771 -0.545434
vn -0.810016 0.181560 0.557593
vn -0.810016 0.181560 0.557593
vn -0.810016 0.181560 0.557593
vn -0.810016 0.181560 0.557593
vn -0.240477 0.169962 0.955659
vn -0.240476 0.169962 0.955659
vn -0.240477 0.169962 0.955659
vn -0.240477 0.169962 0.955659
vn 0.258646 0.234185 0.937155
vn 0.258646 0.234185 0.937155
vn 0.258646 0.234185 0.937155
vn 0.258646 0.234185 0.937155
vn 0.763746 0.400293 0.506416
vn 0.763746 0.400293 0.506416
vn 0.763746 0.400293 0.506416
vn 0.763746 0.400293 0.506416
vn 0.855658 0.324602 -0.403091
vn 0.855658 0.324602 -0.403091
vn 0.855658 0.324602 -0.403091
vn 0.855658 0.324602 -0.403091
vn 0.210335 0.543142 -0.812869
vn 0.210335 0.543142 -0.812869
vn 0.210335 0.543142 -0.812869
vn 0.210335 0.543142 -0.812869
vn -0.214741 0.778886 -0.589256
vn -0.214741 0.778886 -0.589256
vn -0.214741 0.778886 -0.589256
vn -0.214741 0.778886 -0.589256
vn -0.066604 0.996802 -0.044163
vn -0.066604 0.996802 -0.044163
vn -0.066604 0.996802 -0.044163
vn -0.066604 0.996802 -0.044163
vn -0.428052 0.856561 0.288227
vn -0.428052 0.856561 0.288227
vn -0.428052 0.856561 0.288227
vn -0.428052 0.856561 0.288227
vn -0.163973 0.534772 0.828934
vn -0.163973 0.534772 0.828934
vn -0.163973 0.534772 0.828934
vn -0.163973 0.534772 0.828934
vn 0.291870 0.554744 0.779148
vn 0.291870 0.554744 0.779148
vn 0.291870 0.554744 0.779148
vn 0.291870 0.554744 0.779148
vn 0.622123 0.665431 0.412510
vn 0.622123 0.665431 0.412510
vn 0.622123 0.665431 0.412510
vn 0.622123 0.665431 0.412510
vn 0.697823 0.685868 -0.206466
vn 0.697823 0.685868 -0.206466
vn 0.697823 0.685868 -0.206466
vn 0.697823 0.685868 -0.206466
vn 0.142294 0.823009 -0.549917
vn 0.142294 0.823009 -0.549917
vn 0.142294 0.823009 -0.549917
vn 0.142294 0.823009 -0.549917
vn -0.338939 0.802484 -0.491060
vn -0.338939 0.802484 -0.491060
vn -0.338939 0.802484 -0.491060
vn -0.338939 0.802484 -0.491060
vn -0.449515 0.842079 -0.298060
vn -0.449515 0.842079 -0.298060
vn -0.449515 0.842079 -0.298059
vn -0.449515 0.842079 -0.298060
vn -0.396564 0.913794 0.087854
vn -0.396564 0.913794 0.087854
vn -0.396564 0.913794 0.087854
vn -0.396564 0.913794 0.087854
vn 0.103552 0.927939 0.358059
vn 0.103552 0.927939 0.358059
vn 0.103552 0.927939 0.358059
vn 0.103552 0.927939 0.358059
vn 0.178150 0.930935 0.318783
vn 0.178150 0.930935 0.318783
vn 0.178150 0.930935 0.318783
vn 0.178150 0.930935 0.318783
vn 0.373215 0.894131 0.247467
vn 0.373215 0.894131 0.247467
vn 0.373215 0.894131 0.247467
vn 0.373215 0.894131 0.247467
vn 0.446101 0.894344 0.033809
vn 0.446101 0.894344 0.033809
vn 0.446101 0.894344 0.033809
vn 0.446101 0.894344 0.033809
vn -0.139230 0.831319 0.538075
vn -0.139230 0.831319 0.538075
vn -0.139230 0.831319 0.538075
vn 0.381294 0.776075 0.502318
vn 0.381294 0.776075 0.502318
vn 0.381294 0.776075 0.502318
vn 0.446176 0.844631 0.295846
vn 0.446176 0.844631 0.295846
vn 0.446176 0.844631 0.295846
vn 0.304818 0.930718 -0.202115
vn 0.304818 0.930718 -0.202115
vn 0.304818 0.930718 -0.202115
vn 0.394660 0.911891 -0.112687
vn 0.394660 0.911891 -0.112687
vn 0.394660 0.911891 -0.112687
vn -0.085107 0.988850 -0.122197
vn -0.085107 0.988850 -0.122197
vn -0.085107 0.988850 -0.122197
vn -0.127405 0.988247 -0.084478
vn -0.127405 0.988247 -0.084478
vn -0.127405 0.988247 -0.084478
vn -0.273309 0.886329 0.373796
vn -0.273309 0.886329 0.373796
vn -0.273309 0.886329 0.373796
vn 0.000000 -1.000000 0.000000
vn 0.000000 -1.000000 0.000000
vn 0.000000 -1.000000 0.000000
vn 0.000000 -1.000000 0.000000
vn 0.000000 -1.000000 0.000000
vn 0.000000 -1.000000 0.000000
vn 0.000000 -1.000000 0.000000
vn 0.000000 -1.000000 0.000000
vn 0.000000 -1.000000 0.000000
vn 0.000000 -1.000000 0.000000
vn 0.000000 -1.000000 0.000000
vn 0.000000 -1.000000 0.000000
vn 0.000000 -1.000000 0.000000
vn 0.000000 -1.000000 0.000000
vn 0.000000 -1.000000 0.000000
vn 0.000000 -1.000000 0.000000
vn 0.000000 -1.000000 0.000000
vn 0.000000 -1.000000 0.000000
vn 0.000000 -1.000000 0.000000
vn 0.000000 -1.000000 0.000000
vn 0.000000 -1.000000 0.000000
vn 0.000000 -1.000000 0.000000
vn 0.000000 -1.000000 0.000000
vn 0.000000 -1.000000 0.000000
s off
g rock_1:pSphere11rockz
usemtl initialShadingGroup
f 1/1/1 2/2/2 10/3/3 9/4/4
f 2/2/5 3/5/6 11/6/7 10/3/8
f 3/5/9 4/7/10 12/8/11 11/6/12
f 4/7/13 5/9/14 13/10/15 12/8/16
f 5/9/17 6/11/18 14/12/19 13/10/20
f 6/11/21 7/13/22 15/14/23 14/12/24
f 7/13/25 8/15/26 16/16/27 15/14/28
f 8/15/29 1/17/30 9/18/31 16/16/32
f 9/4/33 10/3/34 18/19/35 17/20/36
f 10/3/37 11/6/38 19/21/39 18/19/40
f 11/6/41 12/8/42 20/22/43 19/21/44
f 12/8/45 13/10/46 21/23/47 20/22/48
f 13/10/49 14/12/50 22/24/51 21/23/52
f 14/12/53 15/14/54 23/25/55 22/24/56
f 15/14/57 16/16/58 24/26/59 23/25/60
f 16/16/61 9/18/62 17/27/63 24/26/64
f 17/20/65 18/19/66 26/28/67 25/29/68
f 18/19/69 19/21/70 27/30/71 26/28/72
f 19/21/73 20/22/74 28/31/75 27/30/76
f 20/22/77 21/23/78 29/32/79 28/31/80
f 21/23/81 22/24/82 30/33/83 29/32/84
f 22/24/85 23/25/86 31/34/87 30/33/88
f 23/25/89 24/26/90 32/35/91 31/34/92
f 24/26/93 17/27/94 25/36/95 32/35/96
f 25/29/97 26/28/98 33/37/99
f 26/28/100 27/30/101 33/38/102
f 27/30/103 28/31/104 33/39/105
f 28/31/106 29/32/107 33/40/108
f 29/32/109 30/33/110 33/41/111
f 30/33/112 31/34/113 33/42/114
f 31/34/115 32/35/116 33/43/117
f 32/35/118 25/36/119 33/44/120
f 2/45/121 1/46/122 34/47/123
f 3/48/124 2/49/125 34/50/126
f 4/51/127 3/52/128 34/53/129
f 5/54/130 4/55/131 34/56/132
f 6/57/133 5/58/134 34/59/135
f 7/60/136 6/61/137 34/62/138
f 8/63/139 7/64/140 34/65/141
f 1/66/142 8/67/143 34/68/144
