# This file uses centimeters as units for non-parametric coordinates.

mtllib tall rock.mtl
g default
v -8.719238 7.397434 -8.517652
v -7.262461 7.397434 -8.517652
v -8.346659 8.036817 -9.286541
v -7.346659 8.036817 -9.286541
v -8.346659 6.799544 -7.798662
v -7.346659 6.799544 -7.798662
v -6.342741 7.397434 -8.517652
v -6.715320 8.036817 -9.286541
v -6.715320 6.799544 -7.798662
v -7.346659 8.269078 -10.189171
v -8.346659 4.437606 -7.798662
v -7.346659 4.437606 -7.798662
v -6.715320 3.968952 -7.798662
v -8.346659 3.084414 -6.465342
v -7.346659 3.084414 -6.465342
v -7.346659 -0.113809 -6.672436
v -6.724910 -0.151175 -7.798662
v -8.346659 -0.004649 -6.465344
v -9.224670 5.428806 -8.563086
v -8.346659 4.422553 -7.798662
v -9.698552 -0.244193 -8.617106
v -9.294424 -0.196866 -7.690624
v -6.342741 4.098187 -8.517653
v -5.630793 1.527967 -8.517652
v -5.630793 -0.031134 -8.623422
v -8.346659 -0.193005 -10.692517
v -7.346659 -0.193005 -10.692517
v -8.135215 7.011941 -10.143114
v -9.140647 6.303113 -9.331975
v -9.357522 -0.206968 -9.377409
v -6.875660 3.084415 -7.201053
v -6.342741 4.079167 -8.517653
v -6.715320 4.718549 -9.286543
v -5.758859 1.977202 -9.286542
v -5.758859 -0.039088 -9.286543
vt 0.375000 0.250000
vt 0.625000 0.250000
vt 0.375000 0.500000
vt 0.625000 0.500000
vt 0.000000 0.000000
vt 1.000000 0.000000
vt 1.000000 1.000000
vt 0.000000 1.000000
vt 0.000000 0.000000
vt 1.000000 0.000000
vt 1.000000 1.000000
vt 0.000000 1.000000
vt 0.000000 0.000000
vt 1.000000 0.000000
vt 1.000000 1.000000
vt 0.000000 1.000000
vt 0.000000 0.000000
vt 1.000000 0.000000
vt 0.999950 0.999833
vt 0.000000 0.000000
vt 1.000000 0.000000
vt 0.000125 0.999833
vt 0.000000 0.000000
vt 1.000000 0.000000
vt 0.999963 0.999989
vt 0.000050 0.999991
vt 0.000000 0.000000
vt 1.000000 0.000000
vt 0.999864 0.951178
vt 0.000000 1.000000
vt 0.000050 0.000014
vt 0.999963 0.000017
vt 1.000000 1.000000
vt 0.000000 1.000000
vt 0.000000 0.000000
vt 0.999751 -0.000036
vt 0.500000 1.000045
vt -0.050930 1.054111
vt 0.000000 0.000000
vt 1.000000 0.000000
vt 0.500000 0.500000
vt 0.000000 0.000000
vt 1.000000 0.000000
vt 1.000000 1.000000
vt 0.000000 1.000000
vt 0.000000 0.000000
vt 1.000000 0.000000
vt 1.000000 1.000000
vt 0.114633 0.969521
vt 0.000000 0.000000
vt 1.000000 0.000000
vt 1.000000 1.000000
vt 0.000000 1.000000
vt 0.000000 0.000000
vt 1.000000 0.000000
vt 1.000137 1.000102
vt -0.000100 0.999911
vt 0.000016 0.000079
vt 0.999981 0.000261
vt 0.000092 0.999975
vt -0.187596 0.492355
vt 1.070315 0.551911
vt 1.000000 1.000000
vt 0.000050 1.075966
vt 0.000000 0.000000
vt 1.000000 0.000000
vt 1.000000 1.000000
vt 0.000000 1.000000
vt 0.000000 0.000000
vt 1.000000 0.000000
vt 0.999971 1.000263
vt 0.000000 1.000000
vt 0.000000 0.000000
vt 1.000000 0.000000
vt 1.000000 1.000000
vt 0.000000 1.000000
vt 0.000000 0.000000
vt 1.000000 0.000000
vt -0.040186 0.919616
vt 0.000000 0.000000
vt 0.999994 0.000067
vt 0.000004 0.999737
vt 0.000072 0.000363
vt 1.000000 0.000000
vt 0.871214 1.168601
vt 0.259604 0.188705
vt 1.000000 0.000000
vt 1.438000 0.542437
vt -0.021981 0.976880
vt 0.000000 0.000000
vt 1.000000 0.000000
vt 1.000000 1.000000
vt 0.000081 0.999980
vt 0.000122 -0.000019
vt 1.000000 0.000000
vt 0.961086 0.920153
vt 0.000042 0.999978
vt -0.000498 -0.035272
vt 0.875120 -0.075884
vt 0.763981 1.045928
vt 0.296359 1.037814
vt 0.000000 0.000000
vt 1.000000 0.000000
vt 1.457246 0.811379
vt 1.497135 0.611521
vt 0.999990 0.396331
vt 0.000019 0.002682
vt 1.000000 0.000000
vt 0.913041 4.974675
vt 0.000032 0.001484
vt 1.000000 0.000000
vt 0.700444 2.094312
vn 0.000000 0.768889 0.639382
vn 0.000000 0.768889 0.639382
vn 0.000000 0.768889 0.639382
vn 0.000000 0.768889 0.639382
vn 0.000000 0.768888 0.639383
vn 0.000000 0.768888 0.639383
vn 0.000000 0.768888 0.639383
vn 0.000000 0.768888 0.639383
vn 0.000000 0.768889 0.639382
vn 0.000000 0.768889 0.639382
vn 0.000000 0.768889 0.639382
vn 0.000000 0.768889 0.639382
vn 0.000000 0.768888 0.639384
vn 0.000000 0.768888 0.639384
vn 0.000000 0.768888 0.639384
vn 0.000000 0.768888 0.639384
vn 0.000000 0.968452 0.249199
vn 0.000000 0.968452 0.249199
vn 0.000000 0.968452 0.249199
vn 0.000000 0.968452 0.249199
vn 0.000000 0.968452 0.249199
vn 0.000000 0.968452 0.249199
vn 0.000000 -0.000000 1.000000
vn 0.000000 -0.000000 1.000000
vn 0.000000 -0.000000 1.000000
vn 0.000000 -0.000000 1.000000
vn 0.000000 -0.000000 1.000000
vn 0.000000 -0.000000 1.000000
vn 0.000000 -0.000000 1.000000
vn 0.000000 -0.000000 1.000000
vn 0.000000 0.701857 0.712318
vn 0.000000 0.701857 0.712318
vn 0.000000 0.701857 0.712318
vn 0.000000 0.701857 0.712318
vn 0.887962 0.023689 0.459306
vn 0.887962 0.023689 0.459306
vn 0.887962 0.023689 0.459306
vn 0.887962 0.023689 0.459306
vn 0.887962 0.023689 0.459306
vn 0.101171 -0.032752 0.994330
vn 0.101171 -0.032752 0.994330
vn 0.101171 -0.032752 0.994330
vn 0.101171 -0.032752 0.994330
vn -0.719994 0.076530 0.689748
vn -0.719994 0.076530 0.689748
vn -0.719994 0.076530 0.689748
vn -0.719994 0.076530 0.689748
vn -0.761524 0.108540 0.638984
vn -0.761524 0.108540 0.638984
vn -0.761524 0.108540 0.638984
vn -0.761524 0.108540 0.638984
vn 0.887871 -0.000000 0.460092
vn 0.887871 -0.000000 0.460092
vn 0.887871 -0.000000 0.460092
vn 0.887871 -0.000000 0.460092
vn 0.653986 0.068656 0.753385
vn 0.653986 0.068656 0.753385
vn 0.653986 0.068656 0.753385
vn 0.653986 0.068656 0.753385
vn 0.604836 -0.053900 0.794524
vn 0.604836 -0.053900 0.794524
vn 0.604836 -0.053900 0.794524
vn -0.073311 0.067849 -0.994999
vn -0.073311 0.067849 -0.994999
vn -0.073311 0.067849 -0.994999
vn -0.073311 0.067849 -0.994998
vn -0.942971 0.329860 0.044703
vn -0.942971 0.329860 0.044703
vn -0.942971 0.329860 0.044703
vn -0.942971 0.329860 0.044703
vn -0.970150 0.056930 -0.235727
vn -0.970150 0.056930 -0.235727
vn -0.970150 0.056930 -0.235727
vn -0.970150 0.056930 -0.235727
vn -0.697801 0.369100 -0.613873
vn -0.697801 0.369100 -0.613873
vn -0.697801 0.369100 -0.613873
vn -0.697801 0.369100 -0.613873
vn -0.733443 0.052299 -0.677736
vn -0.733443 0.052299 -0.677736
vn -0.733443 0.052299 -0.677736
vn -0.733443 0.052299 -0.677736
vn 0.841684 -0.034891 0.538842
vn 0.841684 -0.034891 0.538842
vn 0.841684 -0.034891 0.538842
vn 0.743756 0.469158 0.476150
vn 0.743756 0.469158 0.476150
vn 0.743756 0.469158 0.476150
vn -0.912697 0.117473 0.391388
vn -0.912697 0.117473 0.391388
vn -0.912697 0.117473 0.391388
vn -0.912697 0.117473 0.391388
vn 0.899913 0.000000 -0.436069
vn 0.899913 0.000000 -0.436069
vn 0.899913 0.000000 -0.436069
vn 0.899913 0.000000 -0.436069
vn 0.949218 0.299229 -0.097202
vn 0.949218 0.299229 -0.097202
vn 0.949218 0.299229 -0.097202
vn 0.949218 0.299229 -0.097202
vn 0.984640 0.005163 -0.174523
vn 0.984640 0.005163 -0.174523
vn 0.984640 0.005163 -0.174523
vn 0.984640 0.005163 -0.174523
vn 0.744272 0.064752 -0.664731
vn 0.744272 0.064752 -0.664731
vn 0.744272 0.064752 -0.664731
vn 0.744272 0.064752 -0.664731
vn 0.744272 0.064752 -0.664731
vn 0.744272 0.064752 -0.664731
vn 0.052325 -0.998482 0.017206
vn 0.052325 -0.998482 0.017206
vn 0.052325 -0.998482 0.017206
vn 0.052325 -0.998482 0.017206
vn -0.009007 -0.995106 0.098403
vn -0.009007 -0.995106 0.098403
vn -0.009007 -0.995106 0.098403
vn -0.009007 -0.995106 0.098403
vn 0.035582 -0.998406 0.043807
vn 0.035582 -0.998406 0.043807
vn 0.035582 -0.998406 0.043807
vn 0.035582 -0.998406 0.043807
vn 0.047279 -0.998498 -0.027680
vn 0.047279 -0.998498 -0.027680
vn 0.047279 -0.998498 -0.027680
vn 0.012248 -0.991687 -0.128088
vn 0.012248 -0.991687 -0.128088
vn 0.012248 -0.991687 -0.128088
s off
g pCube3
usemtl phong5SG
f 1/1/1 2/2/2 4/4/3 3/3/4
f 2/5/5 1/6/6 5/7/7 6/8/8
f 4/9/9 2/10/10 7/11/11 8/12/12
f 2/13/13 6/14/14 9/15/15 7/16/16
f 3/17/17 4/18/18 10/19/19
f 4/20/20 8/21/21 10/22/22
f 6/23/23 5/24/24 11/25/25 12/26/26
f 9/27/27 6/28/28 12/29/29 13/30/30
f 12/31/31 11/32/32 14/33/33 15/34/34
f 13/35/35 12/36/36 31/86/37 16/37/38 17/38/39
f 15/39/40 14/40/41 18/41/42 16/37/43
f 5/42/44 1/43/45 19/44/46 20/45/47
f 20/46/48 19/47/49 21/48/50 22/49/51
f 7/50/52 9/51/53 13/52/54 23/53/55
f 23/54/56 13/55/57 17/56/58 24/57/59
f 24/58/60 17/59/61 25/60/62
f 27/61/63 26/62/64 28/63/65 10/64/66
f 1/65/67 3/66/68 29/67/69 19/68/70
f 19/69/71 29/70/72 30/71/73 21/72/74
f 3/73/75 10/74/76 28/75/77 29/76/78
f 29/77/79 28/78/80 26/62/81 30/79/82
f 15/80/83 16/81/84 31/82/85
f 12/83/86 15/84/87 31/85/88
f 18/41/89 14/87/90 11/88/91 22/89/92
f 8/90/93 7/91/94 32/92/95 33/93/96
f 33/94/97 32/95/98 24/96/99 34/97/100
f 34/98/101 24/99/102 25/100/103 35/101/104
f 10/102/105 8/103/106 33/106/107 34/105/108 35/104/109 27/61/110
f 22/49/111 21/48/112 35/101/113 25/100/114
f 17/38/115 16/37/116 18/41/117 22/89/118
f 30/79/119 26/62/120 27/61/121 35/104/122
f 35/107/123 21/108/124 30/109/125
f 22/110/126 25/111/127 17/112/128
