# This file uses centimeters as units for non-parametric coordinates.

mtllib Meat.mtl
g default
v 0.000000 1.419213 0.011872
v 0.000000 1.212065 0.000000
v 0.000000 1.412568 0.198213
v 0.000000 1.212065 0.187577
v -0.112490 1.212065 -0.223545
v 0.000000 1.439659 -0.168270
v -0.464804 1.221095 0.300514
v -0.464804 1.205472 0.113588
v -0.464804 1.190365 -0.067176
v -0.454818 1.396571 -0.084446
v -0.454818 1.412342 0.096299
v -0.454818 1.427965 0.283224
v -0.750924 1.240223 0.364125
v -0.750924 1.224600 0.177200
v -0.750924 1.209493 -0.003564
v -0.740938 1.416362 -0.020854
v -0.740938 1.431470 0.159910
v -0.740938 1.447093 0.346836
v 0.551974 1.191254 0.174394
v 0.551974 1.212752 -0.011948
v 0.519177 1.234950 -0.204355
v 0.551974 1.439659 -0.168270
v 0.551974 1.419213 0.011872
v 0.551974 1.397715 0.198213
v 0.677688 1.212752 -0.011948
v 0.677688 1.191254 0.174394
v 0.677688 1.397715 0.198213
v 0.677688 1.419213 0.011872
v 0.677688 1.440003 -0.168327
v 0.663041 1.234170 -0.197599
v -0.615101 1.386655 0.590201
v -0.606177 1.458206 0.557641
v -0.457966 1.450675 0.553143
v -0.457037 1.378624 0.585405
v -0.768072 1.407539 -0.142095
v -0.788041 1.332594 -0.156535
v -0.465858 1.298946 -0.373055
v -0.449192 1.374236 -0.356396
v -0.953523 1.461449 0.395835
v -0.977762 1.390042 0.421261
v 0.591024 1.298528 0.409158
v 0.573893 1.374737 0.397384
v 0.779142 1.323848 0.189691
v 0.754861 1.399094 0.186259
v 0.002446 1.422638 -0.460594
v 0.000000 1.345285 -0.500000
v 0.301776 1.388163 -0.529287
v 0.280897 1.461282 -0.487872
v 0.000000 1.345539 0.500000
v -0.001237 1.405029 0.482462
v 0.369407 1.364659 0.484741
v 0.354219 1.285946 0.499813
v -1.018628 1.450517 0.227428
v -1.050139 1.377889 0.234045
v -0.975358 1.356082 0.016315
v -0.949079 1.430236 0.024932
v 0.820074 1.345346 0.003350
v 0.793147 1.419202 0.011966
v 0.779142 1.366136 -0.176849
v 0.755049 1.438552 -0.155752
v 0.553903 1.463516 -0.372138
v 0.571207 1.391942 -0.400537
v -0.318084 1.381298 -0.418401
v -0.329872 1.304247 -0.437268
v -0.252267 1.363396 0.521467
v -0.253953 1.435503 0.489442
v 0.426750 1.473505 -0.458719
v 0.434894 1.402651 -0.493356
v 0.434894 1.288042 0.500055
v 0.427759 1.364921 0.482462
v -0.615789 1.251164 0.573086
v -0.620163 1.281795 0.598965
v -0.468267 1.243668 0.568609
v -0.462098 1.273764 0.594168
v -0.776911 1.200735 -0.123363
v -0.793103 1.227734 -0.147772
v -0.458262 1.167456 -0.337509
v -0.470920 1.194085 -0.364291
v -0.957477 1.223376 0.043256
v -0.980420 1.251222 0.025079
v 0.552693 1.256894 -0.394567
v 0.571207 1.287289 -0.412611
v 0.753364 1.231989 -0.178692
v 0.779142 1.261482 -0.188923
v -0.001323 1.212065 0.471874
v 0.000000 1.240191 0.500000
v 0.370469 1.158389 0.459254
v 0.354219 1.185630 0.488240
v 0.002617 1.212065 -0.471874
v 0.000000 1.240191 -0.500000
v 0.313702 1.251614 -0.482541
v 0.297642 1.286656 -0.529287
v 0.791264 1.212740 -0.011846
v 0.820074 1.240693 -0.008724
v 0.753163 1.192729 0.161604
v 0.779142 1.219195 0.177617
v -1.026660 1.243551 0.244688
v -1.055201 1.273029 0.242809
v -0.962063 1.254398 0.411779
v -0.982824 1.285182 0.430025
v 0.572695 1.168439 0.372146
v 0.591024 1.193875 0.397084
v -0.264306 1.228500 0.504924
v -0.257328 1.258536 0.530231
v -0.327496 1.175283 -0.399257
v -0.334934 1.201455 -0.428504
v 0.427260 1.158671 0.456817
v 0.434894 1.183388 0.487981
v 0.426180 1.266833 -0.480712
v 0.434894 1.297997 -0.505429
vt 0.265903 0.808862
vt 0.265623 0.758359
vt 0.300648 0.758189
vt 0.300943 0.808698
vt 0.266790 0.546380
vt 0.272708 0.494788
vt 0.306930 0.501435
vt 0.305585 0.555879
vt 0.590687 0.521047
vt 0.581216 0.570444
vt 0.476773 0.594213
vt 0.457965 0.527350
vt 0.581891 0.780284
vt 0.581977 0.830878
vt 0.454914 0.807971
vt 0.454448 0.757429
vt 0.582223 0.883164
vt 0.455170 0.859979
vt 0.266103 0.861086
vt 0.301132 0.860944
vt 0.282572 0.443771
vt 0.316796 0.450377
vt 0.600593 0.469988
vt 0.467942 0.476231
vt 0.682011 0.467315
vt 0.672140 0.518361
vt 0.662643 0.567717
vt 0.661776 0.798270
vt 0.661909 0.848778
vt 0.662108 0.901029
vt 0.738886 0.069736
vt 0.741097 0.037968
vt 0.721448 0.914791
vt 0.899444 0.082770
vt 0.675500 0.068008
vt 0.583488 0.958664
vt 0.587868 0.066863
vt 0.526595 0.940928
vt 0.669342 0.764397
vt 0.235081 0.301943
vt 0.136879 0.304512
vt 0.719886 0.811149
vt 0.580494 0.704206
vt 0.385347 0.302025
vt 0.543934 0.687052
vt 0.442874 0.297151
vt 0.739446 0.867749
vt 0.049486 0.311069
vt 0.234273 0.071711
vt 0.235299 0.040107
vt 0.335927 0.940517
vt 0.307105 0.076086
vt 0.117021 0.070465
vt 0.244593 0.857822
vt 0.039055 0.071999
vt 0.233724 0.809042
vt 0.453971 0.675801
vt 0.571954 0.279503
vt 0.375699 0.668586
vt 0.688352 0.264435
vt 0.334908 0.676449
vt 0.740548 0.259022
vt 0.484493 0.067127
vt 0.455852 0.939343
vt 0.338822 0.078872
vt 0.352174 0.941096
vt 0.920754 0.273449
vt 0.244098 0.762010
vt 0.803413 0.262647
vt 0.805714 0.232559
vt 0.656230 0.403287
vt 0.736691 0.112790
vt 0.894335 0.125135
vt 0.742116 0.465148
vt 0.615791 0.396924
vt 0.674387 0.110583
vt 0.556890 0.403760
vt 0.587583 0.110334
vt 0.663502 0.601776
vt 0.235435 0.342889
vt 0.384855 0.342844
vt 0.565490 0.644005
vt 0.721465 0.565541
vt 0.138991 0.344831
vt 0.441320 0.336888
vt 0.526622 0.653800
vt 0.750928 0.514096
vt 0.969560 0.137111
vt 0.286152 0.606212
vt 0.800546 0.303562
vt 0.916153 0.313233
vt 0.243232 0.536399
vt 0.315895 0.636564
vt 0.738475 0.299459
vt 0.986299 0.323181
vt 0.241794 0.488754
vt 0.483610 0.398829
vt 0.481084 0.110025
vt 0.381058 0.381755
vt 0.335380 0.120170
vt 0.365488 0.379463
vt 0.303935 0.117660
vt 0.432607 0.656011
vt 0.572226 0.320362
vt 0.686494 0.303341
vt 0.346747 0.642590
vt 0.117238 0.112699
vt 0.261358 0.443310
vt 0.232810 0.114850
vt 0.232181 0.130872
vt 0.743151 0.228729
vt 0.299678 0.700967
vt 0.923456 0.243070
vt 0.991685 0.250918
vt 0.983824 0.064123
vt 0.135165 0.274368
vt 0.308276 0.044217
vt 0.334043 0.045571
vt 0.486514 0.041975
vt 0.588657 0.034568
vt 0.681498 0.231685
vt 0.570496 0.246079
vt 0.444101 0.266326
vt 0.117301 0.038259
vt 0.295165 0.916819
vt 0.903006 0.050511
vt 0.385732 0.271565
vt 0.234618 0.271471
vt 0.676733 0.036200
vt 0.624792 0.959945
vt 0.302183 0.133647
vt 0.321491 0.395062
vt 0.055546 0.366410
vt 0.892005 0.141328
vt 0.117838 0.128930
vt 0.044754 0.132296
vt 0.738946 0.314872
vt 0.694341 0.325430
vt 0.572264 0.335868
vt 0.441556 0.352282
vt 0.327007 0.136004
vt 0.479947 0.126263
vt 0.587529 0.126587
vt 0.914091 0.328460
vt 0.799551 0.318810
vt 0.139557 0.360107
vt 0.384845 0.358212
vt 0.235556 0.358223
vt 0.674389 0.126662
vt 0.736440 0.128948
vt 0.991231 0.281710
vt 0.041015 0.116165
vt 0.981217 0.338064
vt 0.041800 0.039636
vt 0.053845 0.351233
vt 0.977794 0.095327
vt 0.966503 0.152917
vt 0.046123 0.281108
vn -0.000377 0.993441 0.114349
vn -0.015942 0.992494 0.121251
vn -0.026646 0.995130 0.094903
vn 0.005423 0.995215 0.097561
vn 0.013174 -0.992810 -0.118973
vn 0.000000 -0.993411 -0.114609
vn 0.001022 -0.997558 -0.069836
vn 0.037592 -0.996586 -0.073505
vn -0.003609 -0.998598 0.052804
vn 0.025884 -0.997953 0.058479
vn 0.065569 -0.997821 0.007414
vn 0.012167 -0.999603 -0.025415
vn -0.039013 0.997906 -0.051583
vn 0.006466 0.999276 -0.037505
vn -0.008298 0.998719 0.049914
vn -0.059226 0.998164 0.012700
vn 0.039383 0.997666 -0.055792
vn 0.035728 0.998657 0.037507
vn -0.000000 0.993411 0.114609
vn 0.026017 0.995626 0.089737
vn 0.000000 -0.993411 -0.114609
vn -0.035991 -0.996147 -0.079974
vn -0.029704 -0.997744 0.060214
vn -0.035171 -0.999054 -0.025575
vn -0.048048 -0.995375 0.083190
vn -0.048048 -0.995375 0.083189
vn -0.042101 -0.995630 0.083355
vn 0.042860 0.995576 -0.083617
vn 0.048216 0.995332 -0.083602
vn 0.048048 0.995375 -0.083190
vn -0.264279 0.426581 0.864977
vn -0.264279 0.426581 0.864977
vn -0.379584 0.421999 0.823306
vn -0.379584 0.421999 0.823306
vn 0.197058 0.402762 0.893841
vn 0.197058 0.402762 0.893841
vn 0.191464 0.374723 0.907152
vn 0.195024 0.375392 0.906116
vn -0.557989 0.297904 -0.774533
vn -0.557989 0.297904 -0.774533
vn -0.762795 0.334621 -0.553329
vn -0.762794 0.334621 -0.553329
vn -0.486157 0.288864 -0.824748
vn -0.488824 0.289204 -0.823050
vn -0.254049 0.342514 -0.904513
vn -0.272754 0.336196 -0.901431
vn -0.862444 0.402183 0.307310
vn -0.862444 0.402183 0.307310
vn -0.917962 0.394518 -0.041243
vn -0.917962 0.394517 -0.041243
vn 0.633412 0.255239 0.730508
vn 0.633412 0.255239 0.730508
vn 0.353017 0.234211 0.905828
vn 0.350723 0.234104 0.906746
vn 0.818895 0.286915 0.497082
vn 0.818895 0.286915 0.497082
vn 0.940246 0.338224 0.039271
vn 0.940246 0.338224 0.039271
vn -0.170930 0.409409 -0.896196
vn -0.173360 0.404294 -0.898050
vn -0.062439 0.467344 -0.881868
vn -0.044320 0.469743 -0.881690
vn 0.366139 0.459795 -0.809031
vn 0.343436 0.463766 -0.816684
vn 0.049977 0.274126 0.960394
vn 0.054321 0.283621 0.957397
vn 0.025783 0.223497 0.974364
vn 0.024939 0.222448 0.974626
vn 0.799999 0.397174 -0.449727
vn 0.799999 0.397174 -0.449727
vn 0.640620 0.411990 -0.647974
vn 0.640620 0.411990 -0.647974
vn 0.058009 0.997514 -0.040008
vn 0.060269 0.997275 0.042545
vn 0.000000 0.993411 0.114609
vn 0.054376 0.994285 0.091873
vn -0.046894 0.998205 0.037241
vn -0.058471 0.988375 0.140339
vn -0.102023 0.991684 -0.078446
vn -0.078789 0.996709 -0.019043
vn 0.008236 0.996613 -0.081822
vn 0.048048 0.995375 -0.083189
vn 0.048048 0.995375 -0.083190
vn 0.048048 0.995375 -0.083189
vn 0.048048 0.995375 -0.083190
vn 0.048048 0.995375 -0.083189
vn 0.048048 0.995375 -0.083189
vn -0.000000 0.993411 0.114609
vn 0.000000 0.993411 0.114609
vn -0.000000 0.993411 0.114609
vn 0.000000 0.993411 0.114609
vn 0.000001 0.993411 0.114608
vn -0.243030 -0.646035 0.723585
vn -0.243030 -0.646035 0.723585
vn -0.330673 -0.636170 0.697096
vn -0.330673 -0.636170 0.697096
vn 0.101175 -0.655971 0.747974
vn 0.101175 -0.655971 0.747974
vn 0.104436 -0.671323 0.733770
vn 0.105658 -0.671136 0.733766
vn -0.464068 -0.730817 -0.500547
vn -0.464068 -0.730817 -0.500547
vn -0.379737 -0.740806 -0.554081
vn -0.383709 -0.740335 -0.551970
vn -0.611883 -0.719133 -0.329313
vn -0.611883 -0.719133 -0.329313
vn -0.114647 -0.737924 -0.665075
vn -0.125793 -0.739316 -0.661504
vn -0.719115 -0.692964 0.051718
vn -0.719115 -0.692964 0.051718
vn 0.479431 -0.645191 -0.594873
vn 0.479431 -0.645191 -0.594873
vn 0.592339 -0.671928 -0.444576
vn 0.592339 -0.671928 -0.444576
vn 0.274202 -0.683423 -0.676569
vn 0.275340 -0.683053 -0.676480
vn 0.698561 -0.710858 -0.081812
vn 0.698561 -0.710858 -0.081812
vn -0.034516 -0.709628 0.703731
vn -0.026694 -0.706838 0.706872
vn -0.062298 -0.735093 0.675098
vn -0.076959 -0.729653 0.679474
vn 0.262492 -0.779270 0.569066
vn 0.260228 -0.779329 0.570025
vn -0.000505 -0.744246 -0.667905
vn 0.009335 -0.746085 -0.665785
vn 0.082568 -0.747121 -0.659540
vn 0.091573 -0.743281 -0.662682
vn 0.607165 -0.751734 0.257383
vn 0.607166 -0.751734 0.257383
vn 0.472631 -0.766655 0.434580
vn 0.472631 -0.766655 0.434580
vn -0.692816 -0.651033 0.310101
vn -0.692816 -0.651033 0.310101
vn -0.075752 -0.993382 -0.086339
vn 0.000000 -0.993411 -0.114609
vn -0.034220 -0.998558 0.041375
vn -0.058784 -0.997689 -0.034072
vn 0.089200 -0.993148 0.075508
vn 0.076778 -0.996931 -0.015305
vn 0.057126 -0.989418 -0.133372
vn 0.065754 -0.996427 -0.053002
vn -0.048048 -0.995375 0.083190
vn -0.004241 -0.996428 0.084339
vn -0.048048 -0.995375 0.083190
vn -0.048048 -0.995375 0.083190
vn -0.048048 -0.995375 0.083190
vn -0.048048 -0.995375 0.083189
vn -0.048049 -0.995375 0.083189
vn 0.000000 -0.993411 -0.114609
vn 0.000000 -0.993411 -0.114609
vn -0.000000 -0.993411 -0.114609
vn 0.000000 -0.993411 -0.114609
vn -0.000001 -0.993411 -0.114608
vn 0.006435 -0.066332 0.997777
vn 0.006191 -0.068174 0.997654
vn -0.000000 -0.114609 0.993411
vn -0.000000 -0.114609 0.993411
vn -0.013225 0.016074 -0.999783
vn 0.014165 0.020632 -0.999687
vn 0.210791 0.052938 -0.976097
vn 0.210791 0.052938 -0.976097
vn 1.000000 0.000000 -0.000000
vn 1.000000 -0.000000 -0.000000
vn 0.975473 0.025227 -0.218671
vn 0.975473 0.025227 -0.218671
vn -0.830695 -0.006427 -0.556691
vn -0.830695 -0.006427 -0.556691
vn -0.945047 0.018338 -0.326421
vn -0.945047 0.018338 -0.326421
vn -0.276456 -0.043586 -0.960038
vn -0.257045 -0.041968 -0.965488
vn -0.144752 -0.016957 -0.989323
vn -0.152837 -0.020206 -0.988045
vn 0.195546 0.051127 0.979361
vn 0.194654 0.051010 0.979545
vn 0.045410 -0.018965 0.998788
vn 0.052332 -0.012098 0.998556
vn 0.872242 -0.056052 0.485853
vn 0.872242 -0.056052 0.485853
vn -0.931742 0.074676 0.355360
vn -0.931742 0.074676 0.355360
vn -0.931742 0.074676 0.355360
vn -0.931742 0.074676 0.355360
vn 0.672049 -0.084869 0.735628
vn 0.672049 -0.084869 0.735628
vn -0.419594 0.095695 0.902653
vn -0.419594 0.095695 0.902653
vn -0.297443 0.093766 0.950124
vn -0.297443 0.093766 0.950124
vn 0.734668 0.077754 -0.673956
vn 0.734668 0.077754 -0.673956
vn 0.679245 0.084113 -0.729075
vn 0.679245 0.084113 -0.729075
vn -0.609396 -0.036777 -0.792013
vn -0.609396 -0.036777 -0.792013
vn -0.526362 -0.045693 -0.849032
vn -0.522245 -0.046119 -0.851548
vn 0.190129 0.072649 0.979068
vn 0.190129 0.072649 0.979068
vn 0.505619 -0.098880 0.857072
vn 0.505619 -0.098880 0.857072
vn 0.565373 0.094534 -0.819400
vn 0.565373 0.094534 -0.819400
s 1
g pCube1
usemtl initialShadingGroup
f 28/1/1 29/2/2 22/3/3 23/4/4
s 2
f 30/5/5 25/6/6 20/7/7 21/8/8
f 8/9/9 9/10/10 5/11/11 2/12/12
s 1
f 10/13/13 11/14/14 1/15/15 6/16/16
f 11/14/14 12/17/17 3/18/18 1/15/15
f 27/19/19 28/1/1 23/4/4 24/20/20
s 2
f 25/6/6 26/21/21 19/22/22 20/7/7
f 7/23/23 8/9/9 2/12/12 4/24/24
f 13/25/25 14/26/26 8/9/9 7/23/23
f 14/26/26 15/27/27 9/10/10 8/9/9
s 1
f 16/28/28 17/29/29 11/14/14 10/13/13
f 17/29/29 18/30/30 12/17/17 11/14/14
s 2
f 20/7/7 19/22/22 4/24/24 2/12/12
f 21/8/8 20/7/7 2/12/12 5/11/11
s 1
f 23/4/4 22/3/3 6/16/16 1/15/15
f 24/20/20 23/4/4 1/15/15 3/18/18
s 5
f 31/31/31 32/32/32 39/126/33 40/34/34
f 32/32/32 31/31/31 34/35/35 33/129/36
f 33/129/36 34/35/35 65/37/37 66/120/38
f 35/128/39 36/40/40 55/41/41 56/116/42
f 36/40/40 35/128/39 38/127/43 37/44/44
f 37/44/44 38/127/43 63/123/45 64/46/46
f 40/34/47 39/126/48 53/115/49 54/156/50
f 41/49/51 42/50/52 70/117/53 69/52/54
f 42/50/52 41/49/51 43/53/55 44/124/56
f 44/124/56 43/53/55 57/55/57 58/154/58
f 45/122/59 46/58/60 64/46/46 63/123/45
f 46/58/60 45/122/59 48/121/61 47/60/62
f 47/60/62 48/121/61 67/111/63 68/62/64
f 49/63/65 50/119/66 66/120/38 65/37/37
f 50/119/66 49/63/65 52/65/67 51/118/68
f 51/118/68 52/65/67 69/52/54 70/117/53
f 54/48/50 53/158/49 56/116/42 55/41/41
f 58/114/58 57/151/57 59/67/69 60/113/70
f 60/113/70 59/67/69 62/69/71 61/70/72
f 61/70/72 62/69/71 68/62/64 67/111/63
s 1
f 12/17/17 66/38/73 50/64/74 3/18/18
f 70/51/75 27/19/19 24/20/20 51/66/76
f 48/59/77 22/3/3 29/2/2 67/61/78
f 63/45/79 10/13/13 6/16/16 45/57/80
f 38/43/81 16/28/28 10/13/13 63/45/79
f 18/30/30 33/36/82 66/38/73 12/17/17
f 56/42/83 16/28/28 38/43/81 35/39/84
f 53/47/85 17/29/29 16/28/28 56/42/83
f 39/33/86 18/30/30 17/29/29 53/47/85
f 32/130/87 33/36/82 18/30/30 39/33/86
f 45/57/80 6/16/16 22/3/3 48/59/77
f 51/66/76 24/20/20 3/18/18 50/64/74
f 44/54/88 27/19/19 70/51/75 42/125/89
f 58/56/90 28/1/1 27/19/19 44/54/88
f 60/68/91 29/2/2 28/1/1 58/56/90
f 67/61/78 29/2/2 60/68/91 61/112/92
s 8
f 71/150/93 72/72/94 100/73/95 99/134/96
f 72/72/94 71/150/93 73/149/97 74/76/98
f 74/76/98 73/149/97 103/143/99 104/78/100
f 75/148/101 76/80/102 78/81/103 77/147/104
f 76/80/102 75/148/101 79/146/105 80/84/106
f 77/147/104 78/81/103 106/85/107 105/140/108
f 80/84/106 79/146/105 97/133/109 98/155/110
f 81/145/111 82/90/112 84/91/113 83/144/114
f 82/90/112 81/145/111 109/137/115 110/94/116
f 83/144/114 84/91/113 94/95/117 93/153/118
f 85/142/119 86/98/120 104/78/100 103/143/99
f 86/98/120 85/142/119 87/141/121 88/100/122
f 88/100/122 87/141/121 107/131/123 108/102/124
f 89/139/125 90/104/126 92/105/127 91/138/128
f 90/104/126 89/139/125 105/140/108 106/85/107
f 91/138/128 92/105/127 110/94/116 109/137/115
f 93/136/118 94/152/117 96/107/129 95/135/130
f 95/135/130 96/107/129 102/109/131 101/110/132
f 98/88/110 97/157/109 99/134/133 100/73/134
f 101/110/132 102/109/131 108/102/124 107/131/123
s 2
f 87/99/135 19/22/22 26/21/21 107/101/136
f 103/77/137 7/23/23 4/24/24 85/97/138
f 9/10/10 105/86/139 89/103/140 5/11/11
f 109/93/141 30/5/5 21/8/8 91/106/142
f 73/75/143 13/25/25 7/23/23 103/77/137
f 15/27/27 77/82/144 105/86/139 9/10/10
f 99/74/145 13/25/25 73/75/143 71/71/146
f 97/87/147 14/26/26 13/25/25 99/74/145
f 79/83/148 15/27/27 14/26/26 97/87/147
f 75/79/149 77/82/144 15/27/27 79/83/148
f 85/97/138 4/24/24 19/22/22 87/99/135
f 91/106/142 21/8/8 5/11/11 89/103/140
f 95/108/150 26/21/21 25/6/6 93/96/151
f 107/101/136 26/21/21 95/108/150 101/132/152
f 83/92/153 30/5/5 109/93/141 81/89/154
f 93/96/151 25/6/6 30/5/5 83/92/153
s 11
f 52/65/155 88/100/156 108/102/157 69/52/158
s 12
f 92/105/159 47/60/160 68/62/161 110/94/162
s 13
f 57/151/163 94/95/164 84/91/165 59/67/166
s 12
f 55/41/167 80/84/168 98/155/169 54/48/170
f 106/85/171 64/46/172 46/58/173 90/104/174
s 11
f 65/37/175 104/78/176 86/98/177 49/63/178
s 13
f 43/53/179 96/107/180 94/152/164 57/55/163
s off
f 54/156/181 98/88/182 100/73/183 40/34/184
s 13
f 102/109/185 96/107/180 43/53/179 41/49/186
s 11
f 40/34/187 100/73/188 72/72/189 31/31/190
s 18
f 59/67/191 84/91/192 82/90/193 62/69/194
s 12
f 76/80/195 80/84/168 55/41/167 36/40/196
f 78/81/197 37/44/198 64/46/172 106/85/171
s 11
f 34/35/199 74/76/200 104/78/176 65/37/175
s 12
f 36/40/196 37/44/198 78/81/197 76/80/195
s 11
f 72/72/189 74/76/200 34/35/199 31/31/190
s 12
f 90/104/174 46/58/173 47/60/160 92/105/159
s 11
f 49/63/178 86/98/177 88/100/156 52/65/155
s 13
f 69/52/201 108/102/202 102/109/185 41/49/186
s 18
f 110/94/203 68/62/204 62/69/194 82/90/193
