# This file uses centimeters as units for non-parametric coordinates.

mtllib Torch.mtl
g default
v -0.286799 -0.226169 0.180633
v 0.182646 -0.232652 0.194455
v -0.194203 -0.023263 -0.251983
v 0.203231 -0.032669 -0.231931
v 0.000000 -0.279245 0.293798
v 0.000000 -0.003652 -0.293798
v 0.324508 -0.141448 0.000000
v 0.000000 -0.141448 0.000000
v -0.324508 -0.141448 0.000000
v -0.189642 8.429003 0.307411
v 0.000000 8.429003 0.500000
v 0.450250 8.301879 0.513080
v 0.595692 8.301879 0.292880
v 0.540865 8.429003 -0.004699
v 0.227727 8.429003 -0.109986
v -0.046971 8.429003 -0.139758
v -0.247744 8.429003 0.000000
v -0.189642 7.690710 0.307411
v 0.000000 7.690710 0.500000
v 0.450250 7.810624 0.513080
v 0.595692 7.810624 0.292880
v 0.540865 7.690710 -0.004699
v 0.227727 7.690710 -0.109986
v -0.046971 7.690710 -0.139758
v -0.247744 7.690710 0.000000
v 1.198476 8.307409 0.917719
v 1.291957 8.338705 0.768467
v 1.186248 8.654452 0.768467
v 1.092767 8.623155 0.917719
v 0.000000 8.049667 0.500000
v -0.189642 8.049667 0.307411
v -0.247744 8.049667 0.000000
v -0.046971 8.049667 -0.139758
v 0.227727 8.049667 -0.109986
v 0.540865 8.049667 -0.004699
v 0.595692 8.049472 0.152081
v 1.240561 8.492221 0.673034
v 1.147081 8.460924 1.030493
v 0.450250 8.049472 0.679462
v 0.530014 8.366421 0.392317
v 1.130146 8.681803 0.835866
v 1.198348 8.478089 0.835866
v 1.266717 8.273874 0.835866
v 0.530014 7.731746 0.392317
v 0.260447 -0.182633 0.087811
v 0.000000 -0.203675 0.132672
v -0.307479 -0.179706 0.081569
v -0.221507 7.690710 0.138819
v -0.221507 8.049667 0.138819
v -0.221507 8.429003 0.138819
v -0.088365 8.834015 -0.187196
v 0.190358 8.834015 -0.173987
v 0.503495 8.834015 -0.068699
v 0.579989 8.727753 0.244819
v 0.508891 8.781703 0.352461
v 0.422545 8.727752 0.483190
v 0.000000 8.834015 0.500000
v -0.231037 8.834015 0.307411
v -0.262901 8.834015 0.138819
v -0.289139 8.834015 0.000000
v -0.003973 10.940321 -0.549673
v -0.003973 11.112471 0.000000
v 0.545699 10.940321 0.000000
v 0.340273 10.940321 -0.433925
v -0.553646 10.940321 0.000000
v -0.332926 10.940321 -0.471440
v -0.524802 10.940321 0.152610
v -0.003973 11.112471 0.131485
v 0.437188 10.940321 0.164287
v -0.489772 10.940321 0.337950
v -0.003973 10.940321 0.549673
v 0.305404 10.940321 0.363809
v 0.205296 8.844412 -0.191272
v -0.101117 8.844412 -0.205792
v 0.549541 8.844412 -0.075524
v 0.633635 8.727592 0.269140
v 0.555474 8.786903 0.387476
v 0.460550 8.727592 0.531193
v -0.003973 8.844412 0.549673
v -0.257962 8.844412 0.337950
v -0.292993 8.844412 0.152610
v -0.321837 8.844412 0.000000
v 0.378484 11.112471 -0.164586
v 0.216607 11.112471 0.342578
v -0.258735 11.112471 0.316721
v -0.408025 11.112471 0.059525
v -0.268969 11.112471 -0.312575
v -0.003973 11.112471 -0.456811
vt 0.345261 0.397827
vt 0.293243 0.376126
vt 0.824848 0.854675
vt 0.866159 0.875743
vt 0.469982 0.704564
vt 0.472954 0.886627
vt 0.532048 0.910902
vt 0.562139 0.919230
vt 0.414066 0.717762
vt 0.818627 0.926862
vt 0.779985 0.910926
vt 0.437073 0.432234
vt 0.404868 0.447741
vt 0.805791 0.321875
vt 0.786483 0.296066
vt 0.766083 0.321882
vt 0.782624 0.332433
vt 0.378365 0.423513
vt 0.854528 0.900082
vt 0.751370 0.892579
vt 0.746601 0.868189
vt 0.508410 0.386145
vt 0.470146 0.413061
vt 0.756985 0.302686
vt 0.766495 0.269350
vt 0.576478 0.644017
vt 0.471749 0.846568
vt 0.516602 0.682277
vt 0.785441 0.852300
vt 0.558790 0.370481
vt 0.592070 0.637437
vt 0.505161 0.805686
vt 0.579344 0.858475
vt 0.573787 0.895761
vt 0.364365 0.417989
vt 0.859874 0.895944
vt 0.808137 0.309211
vt 0.795794 0.284282
vt 0.773335 0.263366
vt 0.530931 0.379138
vt 0.763980 0.861079
vt 0.786862 0.776573
vt 0.824479 0.779018
vt 0.824654 0.814926
vt 0.786187 0.812512
vt 0.883726 0.839124
vt 0.864709 0.826157
vt 0.906723 0.472316
vt 0.966908 0.912726
vt 0.945481 0.464815
vt 0.930683 0.497856
vt 0.818585 0.888439
vt 0.839259 0.883018
vt 0.853446 0.851047
vt 0.818547 0.853610
vt 0.781557 0.837099
vt 0.780810 0.872188
vt 0.752866 0.853493
vt 0.754220 0.818121
vt 0.749736 0.792944
vt 0.748248 0.828669
vt 0.766355 0.785615
vt 0.765228 0.821438
vt 0.781663 0.256079
vt 0.807188 0.269863
vt 0.811022 0.293641
vt 0.858268 0.832315
vt 0.870007 0.503638
vt 0.956505 0.950614
vt 0.877865 0.440732
vt 0.920464 0.430459
vt 0.966306 0.932075
vt 0.610621 0.629263
vt 0.588539 0.819328
vt 0.544667 0.805666
vt 0.270160 0.678880
vt 0.437040 0.435424
vt 0.472617 0.414416
vt 0.401759 0.452350
vt 0.373946 0.425828
vt 0.359309 0.419804
vt 0.344566 0.397662
vt 0.604115 0.373685
vt 0.560425 0.367431
vt 0.533900 0.377020
vt 0.512438 0.384768
vt 0.525323 0.856042
vt 0.540407 0.847261
vt 0.740569 0.909331
vt 0.740627 0.936247
vt 0.758427 0.902324
vt 0.780490 0.893667
vt 0.825065 0.899311
vt 0.861662 0.921013
vt 0.854696 0.941175
vt 0.848895 0.946699
vt 0.808570 0.970927
vt 0.768824 0.955420
vt 0.944618 0.442001
vt 0.961791 0.924961
vt 0.960188 0.945782
vt 0.889949 0.512647
vt 0.982068 0.912045
vt 0.864230 0.478080
vt 0.948542 0.942681
vt 0.971408 0.906536
vt 0.587930 0.867281
vt 0.306017 0.696070
vt 0.219637 0.650038
vt 0.531730 0.777606
vt 0.508040 0.785951
vt 0.336768 0.709518
vt 0.488528 0.792865
vt 0.449124 0.849845
vt 0.462161 0.892944
vt 0.498602 0.924701
vt 0.600017 0.376126
vt 0.670616 0.650038
vt 0.288880 0.373685
vn 0.014007 0.036413 0.999239
vn -0.276691 0.009038 0.960916
vn -0.338627 0.077257 0.937744
vn -0.090246 0.159677 0.983035
vn 0.037915 0.717076 -0.695963
vn 0.064541 0.826800 -0.558781
vn 0.464455 0.811248 -0.355187
vn 0.667070 0.742178 0.064726
vn 0.535758 0.600921 -0.593176
vn 0.318402 -0.043372 -0.946963
vn 0.240436 -0.066481 -0.968386
vn 0.154884 -0.126474 -0.979804
vn 0.316417 -0.119512 -0.941061
vn -0.000000 -0.905365 -0.424634
vn -0.000000 -0.905365 -0.424635
vn -0.000000 -0.905365 -0.424633
vn -0.000001 -0.905366 -0.424632
vn 0.979784 0.036043 -0.196784
vn 0.995102 0.046403 -0.087290
vn 0.979163 0.071382 0.190115
vn 0.978278 0.039663 -0.203469
vn -0.601722 -0.056577 -0.796699
vn -0.835423 -0.072474 -0.544808
vn -0.905902 -0.121862 -0.405575
vn -0.627620 -0.109287 -0.770810
vn -0.000000 -0.905365 -0.424634
vn -0.000000 -0.905364 -0.424636
vn 0.076787 -0.128556 -0.988725
vn 0.089091 -0.078405 -0.992933
vn -0.696405 0.673029 -0.249104
vn -0.376470 0.831723 -0.408053
vn -0.506729 0.623940 -0.594915
vn -0.690132 -0.020834 0.723384
vn -0.674900 -0.034489 0.737102
vn -0.593115 0.704738 0.389306
vn -0.449259 0.883731 0.131093
vn 0.254038 0.841150 0.477422
vn 0.612133 0.723221 0.319758
vn 0.836244 0.092697 0.540465
vn 0.825636 0.093667 0.556374
vn 0.000001 -0.905364 -0.424636
vn -0.000001 -0.905365 -0.424633
vn -0.000001 -0.905365 -0.424634
vn -0.977685 -0.099925 0.184787
vn -0.981274 -0.052002 0.185465
vn -0.547890 -0.013803 0.836437
vn -0.174204 -0.034582 0.984102
vn -0.416758 0.000004 0.909018
vn -0.712538 0.000000 0.701633
vn -0.173999 0.000042 0.984746
vn 0.123217 -0.050765 0.991080
vn 0.882248 0.278199 0.379795
vn 0.870240 0.312085 0.381164
vn 0.842719 0.383052 0.378280
vn 0.863733 0.332681 0.378535
vn 0.975150 0.000003 -0.221547
vn 0.975150 -0.000033 -0.221548
vn 0.999181 -0.038684 0.011889
vn 0.949501 -0.027064 -0.312595
vn 0.309437 0.012957 -0.950832
vn 0.194022 0.015468 -0.980875
vn 0.223923 0.000000 -0.974607
vn 0.318702 0.000000 -0.947855
vn 0.107749 0.000000 -0.994178
vn -0.020340 0.018943 -0.999614
vn -0.758489 0.015003 -0.651513
vn -0.901593 0.014433 -0.432345
vn -0.847416 0.000000 -0.530930
vn -0.571311 0.000000 -0.820733
vn -0.981017 0.008760 0.193724
vn -0.982603 0.000000 0.185717
vn -0.541170 -0.014313 0.840791
vn -0.186433 -0.026987 0.982097
vn 0.143956 -0.034819 0.988971
vn 0.825310 -0.049575 0.562499
vn 0.826389 -0.049524 0.560917
vn 0.992315 -0.034205 -0.118912
vn 0.948733 -0.026397 -0.314974
vn 0.121435 0.017562 -0.992444
vn 0.308661 0.014038 -0.951069
vn -0.026500 0.019847 -0.999452
vn -0.765999 0.015676 -0.642651
vn -0.912884 0.014946 -0.407945
vn -0.980922 0.009276 0.194182
vn 0.477250 -0.844396 0.243367
vn 0.472546 -0.844754 0.251180
vn 0.674042 -0.700076 -0.235713
vn 0.674042 -0.700076 -0.235713
vn 0.699152 -0.299341 -0.649293
vn 0.599549 0.052366 -0.798623
vn 0.633786 -0.036103 -0.772665
vn 0.699152 -0.299341 -0.649293
vn -0.073811 0.849784 -0.521938
vn -0.353255 0.920132 -0.169023
vn -0.372656 0.917506 -0.138964
vn -0.073811 0.849784 -0.521938
vn -0.281896 -0.306173 0.909281
vn -0.418309 -0.083925 0.904419
vn -0.056699 -0.583708 0.809982
vn -0.056699 -0.583708 0.809981
vn 0.325567 0.499893 -0.802566
vn 0.325567 0.499893 -0.802567
vn 0.859019 0.345375 0.377893
vn 0.904302 0.205118 0.374386
vn -0.604814 0.388720 0.695052
vn -0.604814 0.388720 0.695052
vn -0.516667 0.673062 0.529191
vn 0.165211 0.688563 0.706107
vn -0.312674 0.812432 0.492127
vn 0.275288 0.657082 0.701755
vn 0.809466 0.095032 0.579425
vn 0.809466 0.095032 0.579425
vn -0.544348 0.818651 0.183017
vn -0.544348 0.818651 0.183017
vn 0.855954 0.351117 0.379553
vn 0.837044 0.396442 0.377082
vn 0.906268 0.183341 0.380875
vn 0.210972 -0.781217 0.587530
vn 0.210972 -0.781217 0.587530
vn 0.817973 -0.049913 0.573087
vn 0.817973 -0.049913 0.573087
vn -0.000001 -0.905368 -0.424629
vn 0.000000 -0.905366 -0.424632
vn -0.000002 -0.905368 -0.424627
vn -0.981035 0.008558 0.193640
vn -0.980928 0.009115 0.194155
vn -0.982603 0.000000 0.185717
vn -0.981401 -0.049464 0.185489
vn -0.977685 -0.099925 0.184787
vn -0.098543 -0.156670 -0.982723
vn 0.041024 -0.150416 -0.987771
vn 0.201278 -0.139528 -0.969546
vn -0.098543 -0.156670 -0.982723
vn 0.316032 -0.129171 -0.939914
vn 0.316032 -0.129171 -0.939914
vn 0.973791 0.028611 -0.225636
vn 0.976307 0.073058 0.203685
vn 0.937896 0.014210 -0.346626
vn 0.937896 0.014210 -0.346626
vn 0.832404 0.100595 0.544963
vn 0.828056 0.101024 0.551468
vn 0.821936 0.101608 0.560444
vn 0.821936 0.101608 0.560444
vn -0.135093 0.009739 0.990785
vn -0.132143 0.010029 0.991180
vn 0.261621 0.046871 0.964032
vn 0.261621 0.046871 0.964032
vn -0.496578 -0.027461 0.867557
vn -0.496578 -0.027461 0.867557
vn -0.976852 -0.108041 0.184630
vn -0.976852 -0.108041 0.184630
vn -0.976852 -0.108041 0.184630
vn -0.976852 -0.108041 0.184630
vn -0.931849 -0.128388 -0.339373
vn -0.910672 -0.128467 -0.392648
vn -0.831041 -0.126243 -0.541695
vn -0.831041 -0.126243 -0.541695
vn 0.023703 -0.865600 -0.500174
vn 0.023703 -0.865600 -0.500174
vn 0.023703 -0.865600 -0.500174
vn 0.023703 -0.865600 -0.500174
vn 0.140629 -0.897379 -0.418251
vn 0.140629 -0.897379 -0.418251
vn 0.140629 -0.897379 -0.418251
vn 0.140629 -0.897379 -0.418251
vn 0.156408 -0.923195 -0.351066
vn 0.156408 -0.923195 -0.351066
vn 0.156408 -0.923195 -0.351066
vn 0.156408 -0.923195 -0.351066
vn -0.163164 -0.920973 0.353817
vn -0.163164 -0.920973 0.353817
vn -0.163164 -0.920973 0.353817
vn -0.163164 -0.920973 0.353817
vn 0.265089 -0.940402 -0.213007
vn 0.265089 -0.940402 -0.213007
vn 0.265089 -0.940402 -0.213007
vn 0.265089 -0.940402 -0.213007
vn -0.233056 -0.955409 0.181324
vn -0.233056 -0.955409 0.181323
vn -0.233056 -0.955409 0.181323
vn -0.233056 -0.955409 0.181323
vn -0.158482 -0.968885 0.190120
vn -0.158482 -0.968885 0.190120
vn -0.158482 -0.968885 0.190120
vn -0.158482 -0.968885 0.190120
vn -0.302525 -0.951425 0.057178
vn -0.302525 -0.951425 0.057178
vn -0.302525 -0.951425 0.057178
vn -0.302525 -0.951425 0.057178
vn -0.302525 -0.951425 0.057179
vn -0.302525 -0.951425 0.057179
vn -0.302525 -0.951425 0.057179
vn -0.302525 -0.951425 0.057179
vn -0.288184 -0.906323 -0.309076
vn -0.288184 -0.906323 -0.309076
vn -0.288184 -0.906323 -0.309076
vn -0.288184 -0.906323 -0.309076
vn 0.000000 1.000000 -0.000001
vn 0.000000 1.000000 -0.000000
s 1
g pCube1
usemtl initialShadingGroup
f 56/94/1 57/93/2 11/3/3 12/4/4
s 2
f 61/115/5 88/6/6 83/7/7 63/8/8 64/116/9
s 3
f 14/10/10 15/11/11 52/98/12 53/97/13
s 4
f 7/14/14 8/15/15 6/16/16 4/17/17
s 5
f 53/97/18 54/96/19 13/19/20 14/10/21
s 6
f 16/20/22 17/21/23 60/89/24 51/90/25
s 4
f 3/24/26 6/16/16 8/15/15 9/25/27
s 3
f 51/90/28 52/98/12 15/11/11 16/20/29
s 2
f 65/113/30 87/27/31 88/6/6 61/115/5 66/114/32
s 1
f 10/29/33 11/3/3 57/93/2 58/92/34
s 2
f 67/111/35 86/32/36 87/27/31 65/113/30
f 63/8/8 83/7/7 84/33/37 69/34/38
s 5
f 54/96/19 55/95/39 40/36/40 13/19/20
s 4
f 45/37/41 46/38/42 8/15/15 7/14/14
f 9/25/27 8/15/15 46/38/42 47/39/43
s 6
f 59/91/44 60/89/24 17/21/23 50/41/45
s 1
f 18/42/46 19/43/47 30/44/48 31/45/49
f 39/46/50 30/44/48 19/43/47 20/47/51
s 8
f 42/48/52 43/99/53 27/50/54 37/51/55
s 5
f 35/52/56 36/53/57 21/54/58 22/55/59
s 3
f 22/55/60 23/56/61 34/57/62 35/52/63
f 33/58/64 34/57/62 23/56/61 24/59/65
s 6
f 24/59/66 25/60/67 32/61/68 33/58/69
f 48/62/70 49/63/71 32/61/68 25/60/67
s 1
f 1/64/72 5/65/73 19/43/47 18/42/46
f 20/47/51 19/43/47 5/65/73 2/66/74
s 5
f 44/67/75 45/37/76 7/14/77 21/54/58
f 22/55/59 21/54/58 7/14/77 4/17/78
s 3
f 6/16/79 23/56/61 22/55/60 4/17/80
f 24/59/65 23/56/61 6/16/79 3/24/81
s 6
f 3/24/82 9/25/83 25/60/67 24/59/66
f 47/39/84 48/62/70 25/60/67 9/25/83
s 12
f 43/49/85 44/67/86 21/54/87 27/100/88
s 13
f 21/54/89 36/53/90 37/105/91 27/100/92
s 14
f 13/19/93 40/36/94 41/101/95 28/69/96
s 15
f 38/103/97 39/46/98 20/47/99 26/106/100
s 1
f 31/45/49 30/44/48 11/3/3 10/29/33
s 6
f 49/63/71 50/41/45 17/21/23 32/61/68
f 33/58/69 32/61/68 17/21/23 16/20/22
s 3
f 16/20/29 15/11/11 34/57/62 33/58/64
f 35/52/63 34/57/62 15/11/11 14/10/10
s 5
f 14/10/21 13/19/20 36/53/57 35/52/56
s 13
f 37/105/91 36/53/90 13/19/101 28/69/102
s 8
f 41/68/103 42/48/52 37/51/55 28/102/104
s 15
f 12/4/105 39/46/98 38/103/97 29/72/106
s 1
f 12/4/4 11/3/3 30/44/48 39/46/50
s 2
f 70/110/107 71/74/108 85/75/109 86/32/36 67/111/35
f 69/34/38 84/33/37 85/75/109 71/74/108 72/107/110
s 5
f 12/4/111 40/36/40 55/95/39 56/94/112
s 14
f 41/101/95 40/36/94 12/4/113 29/72/114
s 8
f 38/70/115 42/48/52 41/68/103 29/104/116
f 26/71/117 43/99/53 42/48/52 38/70/115
s 12
f 20/47/118 44/67/86 43/49/85 26/106/119
s 5
f 2/66/120 45/37/76 44/67/75 20/47/121
s 4
f 5/65/122 46/38/42 45/37/41 2/66/123
f 47/39/43 46/38/42 5/65/122 1/64/124
s 6
f 18/42/125 48/62/70 47/39/84 1/64/126
f 31/45/127 49/63/71 48/62/70 18/42/125
f 10/29/128 50/41/45 49/63/71 31/45/127
f 58/92/129 59/91/44 50/41/45 10/29/128
s 16
f 66/28/130 61/5/131 73/77/132 74/78/133
f 75/79/134 73/77/132 61/5/131 64/9/135
s 17
f 63/112/136 76/80/137 75/79/138 64/9/139
f 69/108/140 77/81/141 76/80/137 63/112/136
f 78/82/142 77/81/141 69/108/140 72/76/143
s 18
f 71/109/144 79/119/145 78/82/146 72/76/147
f 80/84/148 79/83/145 71/118/144 70/73/149
s 19
f 67/31/150 81/85/151 80/84/152 70/73/153
f 65/26/154 82/86/155 81/85/151 67/31/150
f 74/78/156 82/86/155 65/26/154 66/28/157
s off
f 52/12/158 51/23/159 74/78/160 73/77/161
f 53/13/162 52/12/163 73/77/164 75/79/165
f 54/18/166 53/13/167 75/79/168 76/80/169
f 55/35/170 54/18/171 76/80/172 77/81/173
f 56/1/174 55/35/175 77/81/176 78/82/177
f 57/2/178 56/1/179 78/82/180 79/119/181
f 58/30/182 57/117/183 79/83/184 80/84/185
f 59/40/186 58/30/187 80/84/188 81/85/189
f 60/22/190 59/40/191 81/85/192 82/86/193
f 51/23/194 60/22/195 82/86/196 74/78/197
s 2
f 84/33/37 83/7/7 62/87/198 68/88/199
f 85/75/109 84/33/37 68/88/199
f 86/32/36 85/75/109 68/88/199
f 87/27/31 86/32/36 68/88/199 62/87/198
f 88/6/6 87/27/31 62/87/198
f 83/7/7 88/6/6 62/87/198
